<?xml version="1.0" encoding="UTF-8" standalone="no"?>
<svg
   class="ionicon"
   viewBox="0 0 512 512"
   version="1.1"
   id="svg1"
   sodipodi:docname="hamburger.svg"
   inkscape:version="1.3.2 (091e20e, 2023-11-25, custom)"
   xmlns:inkscape="http://www.inkscape.org/namespaces/inkscape"
   xmlns:sodipodi="http://sodipodi.sourceforge.net/DTD/sodipodi-0.dtd"
   xmlns="http://www.w3.org/2000/svg"
   xmlns:svg="http://www.w3.org/2000/svg">
  <defs
     id="defs1" />
  <sodipodi:namedview
     id="namedview1"
     pagecolor="#ffffff"
     bordercolor="#000000"
     borderopacity="0.25"
     inkscape:showpageshadow="2"
     inkscape:pageopacity="0.0"
     inkscape:pagecheckerboard="0"
     inkscape:deskcolor="#d1d1d1"
     inkscape:zoom="1.1338568"
     inkscape:cx="504.03191"
     inkscape:cy="323.23307"
     inkscape:window-width="1920"
     inkscape:window-height="1017"
     inkscape:window-x="-8"
     inkscape:window-y="-8"
     inkscape:window-maximized="1"
     inkscape:current-layer="svg1" />
  <path
     fill="none"
     stroke="currentColor"
     stroke-linecap="round"
     stroke-miterlimit="10"
     stroke-width="48"
     d="M88 152h336M88 256h336M88 360h336"
     id="path1" />
  <path
     style="fill:#ffffff;stroke-width:0.62363"
     d="M 81.383678,174.6817 C 73.187465,172.08209 67.255196,165.79965 65.117483,157.45534 62.644033,147.80052 67.005801,137.18455 75.543407,132.08 82.615901,127.85143 68.61392,128.15591 256,128.15591 c 183.41433,0 172.81569,-0.18661 179.37194,3.15814 6.13636,3.13054 11.38717,11.07595 12.15134,18.38714 1.01403,9.70172 -4.7697,19.55531 -14.02578,23.89539 l -3.50481,1.64337 -173.05725,0.11647 c -138.33607,0.0931 -173.557728,-0.0423 -175.551762,-0.67472 z"
     id="path2" />
  <path
     style="fill:#ffffff;stroke-width:0.62363"
     d="M 81.015074,278.51529 C 74.258562,276.35358 69.761679,272.28193 66.479725,265.35445 64.803465,261.81623 64.559303,260.6269 64.559303,256 c 0,-4.62858 0.244526,-5.81869 1.928083,-9.38399 2.321965,-4.91726 4.890841,-7.96018 8.833134,-10.46317 6.554574,-4.16153 -8.02656,-3.85077 180.67948,-3.85077 188.70604,0 174.12491,-0.31076 180.67948,3.85077 3.94229,2.50299 6.51117,5.54591 8.83314,10.46317 1.68355,3.5653 1.92808,4.75541 1.92808,9.38399 0,4.62858 -0.24453,5.81869 -1.92808,9.38399 -2.32197,4.91726 -4.89085,7.96018 -8.83314,10.46317 -6.55665,4.16285 8.07174,3.85425 -180.94858,3.81723 -162.723412,-0.0319 -171.402274,-0.089 -174.715826,-1.1491 z"
     id="path3" />
  <path
     style="fill:#ffffff;stroke-width:0.62363"
     d="M 83.241417,278.45837 C 76.464315,277.46209 70.582402,272.65829 67.008533,265.20088 65.142002,261.30609 64.857491,260.08912 64.857491,256 c 0,-4.0626 0.287788,-5.31194 2.087043,-9.06022 2.563854,-5.34113 4.393928,-7.55902 8.663872,-10.49984 3.069192,-2.11383 3.823646,-2.33192 10.465933,-3.02536 10.254845,-1.07058 329.550231,-1.07569 339.793061,-0.005 6.18441,0.6462 7.48908,0.99151 10.11675,2.67769 4.06809,2.61048 6.53711,5.55784 9.05217,10.80589 1.81894,3.79548 2.10619,5.03756 2.10619,9.10728 0,4.0626 -0.28779,5.31194 -2.08705,9.06022 -2.56318,5.33973 -4.39399,7.55906 -8.65887,10.4964 -3.00286,2.06815 -3.86789,2.32956 -9.53048,2.88005 -7.3225,0.71187 -338.787555,0.7328 -343.624693,0.0217 z"
     id="path4" />
  <path
     style="fill:#ffffff;stroke-width:0.881946"
     d="M 77.799471,380.92914 C 60.615216,372.36586 60.129804,348.78819 76.945936,339.47082 l 4.634033,-2.5676 172.827911,-0.22923 c 192.06036,-0.25475 177.27977,-0.71241 184.79694,5.72201 12.54416,10.73734 9.80684,31.32014 -5.15559,38.76649 -3.07288,1.52928 -11.1167,1.61219 -177.43737,1.82887 l -174.218584,0.22696 z"
     id="path8" />
</svg>
